HIERARCHY
ROOT hip
{
  OFFSET 0 0 0
  CHANNELS 6 Xposition Yposition Zposition Zrotation Yrotation Xrotation
  JOINT abdomen
  {
    OFFSET 0 20.6881 -0.73152
    CHANNELS 3 Zrotation Xrotation Yrotation
    JOINT chest
    {
      OFFSET 0 11.7043 -0.48768
      CHANNELS 3 Zrotation Xrotation Yrotation
      JOINT neck
      {
        OFFSET 0 22.1894 -2.19456
        CHANNELS 3 Zrotation Xrotation Yrotation
        JOINT head
        {
          OFFSET -0.24384 7.07133 1.2192
          CHANNELS 3 Zrotation Xrotation Yrotation
          JOINT leftEye
          {
            OFFSET 4.14528 8.04674 8.04672
            CHANNELS 3 Zrotation Xrotation Yrotation
            End Site
            {
              OFFSET 1 0 0
            }
          }
          JOINT rightEye
          {
            OFFSET -3.6576 8.04674 8.04672
            CHANNELS 3 Zrotation Xrotation Yrotation
            End Site
            {
              OFFSET 1 0 0
            }
          }
        }
      }
      JOINT rCollar
      {
        OFFSET -2.68224 19.2634 -4.8768
        CHANNELS 3 Zrotation Xrotation Yrotation
        JOINT rShldr
        {
          OFFSET -8.77824 -1.95073 1.46304
          CHANNELS 3 Zrotation Xrotation Yrotation
          JOINT rForeArm
          {
            OFFSET -28.1742 -1.7115 0.48768
            CHANNELS 3 Zrotation Xrotation Yrotation
            JOINT rHand
            {
              OFFSET -22.5879 0.773209 7.07136
              CHANNELS 3 Zrotation Xrotation Yrotation
              JOINT rThumb1
              {
                OFFSET -1.2192 -0.487915 3.41376
                CHANNELS 3 Zrotation Xrotation Yrotation
                JOINT rThumb2
                {
                  OFFSET -3.37035 -0.52449 3.41376
                  CHANNELS 3 Zrotation Xrotation Yrotation
                  End Site
                  {
                    OFFSET -1.78271 -1.18214 1.43049
                  }
                }
              }
              JOINT rIndex1
              {
                OFFSET -7.75947 0.938293 5.60832
                CHANNELS 3 Zrotation Xrotation Yrotation
                JOINT rIndex2
                {
                  OFFSET -2.54057 -0.884171 1.56538
                  CHANNELS 3 Zrotation Xrotation Yrotation
                  End Site
                  {
                    OFFSET -1.62519 -0.234802 1.16502
                  }
                }
              }
              JOINT rMid1
              {
                OFFSET -8.24714 1.18213 3.41376
                CHANNELS 3 Zrotation Xrotation Yrotation
                JOINT rMid2
                {
                  OFFSET -3.10165 -0.590103 1.0647
                  CHANNELS 3 Zrotation Xrotation Yrotation
                  End Site
                  {
                    OFFSET -2.48547 -0.328903 0.83742
                  }
                }
              }
              JOINT rRing1
              {
                OFFSET -8.82822 0.546677 1.51678
                CHANNELS 3 Zrotation Xrotation Yrotation
                JOINT rRing2
                {
                  OFFSET -2.60934 -0.819778 -0.0198488
                  CHANNELS 3 Zrotation Xrotation Yrotation
                  End Site
                  {
                    OFFSET -2.33842 -0.294052 0.168128
                  }
                }
              }
              JOINT rPinky1
              {
                OFFSET -8.27202 -0.0477905 -0.4584
                CHANNELS 3 Zrotation Xrotation Yrotation
                JOINT rPinky2
                {
                  OFFSET -1.82734 -0.647385 -0.700984
                  CHANNELS 3 Zrotation Xrotation Yrotation
                  End Site
                  {
                    OFFSET -1.69225 -0.51767 -0.607171
                  }
                }
              }
            }
          }
        }
      }
      JOINT lCollar
      {
        OFFSET 2.68224 19.2634 -4.8768
        CHANNELS 3 Zrotation Xrotation Yrotation
        JOINT lShldr
        {
          OFFSET 8.77824 -1.95073 1.46304
          CHANNELS 3 Zrotation Xrotation Yrotation
          JOINT lForeArm
          {
            OFFSET 28.1742 -1.7115 0.48768
            CHANNELS 3 Zrotation Xrotation Yrotation
            JOINT lHand
            {
              OFFSET 22.5879 0.773209 7.07136
              CHANNELS 3 Zrotation Xrotation Yrotation
              JOINT lThumb1
              {
                OFFSET 1.2192 -0.487915 3.41376
                CHANNELS 3 Zrotation Xrotation Yrotation
                JOINT lThumb2
                {
                  OFFSET 3.37035 -0.52449 3.41376
                  CHANNELS 3 Zrotation Xrotation Yrotation
                  End Site
                  {
                    OFFSET 1.78271 -1.18214 1.43049
                  }
                }
              }
              JOINT lIndex1
              {
                OFFSET 7.75947 0.938293 5.60832
                CHANNELS 3 Zrotation Xrotation Yrotation
                JOINT lIndex2
                {
                  OFFSET 2.54057 -0.884171 1.56538
                  CHANNELS 3 Zrotation Xrotation Yrotation
                  End Site
                  {
                    OFFSET 1.62519 -0.234802 1.16502
                  }
                }
              }
              JOINT lMid1
              {
                OFFSET 8.24714 1.18213 3.41376
                CHANNELS 3 Zrotation Xrotation Yrotation
                JOINT lMid2
                {
                  OFFSET 3.10165 -0.590103 1.0647
                  CHANNELS 3 Zrotation Xrotation Yrotation
                  End Site
                  {
                    OFFSET 2.48547 -0.328903 0.83742
                  }
                }
              }
              JOINT lRing1
              {
                OFFSET 8.82822 0.546677 1.51678
                CHANNELS 3 Zrotation Xrotation Yrotation
                JOINT lRing2
                {
                  OFFSET 2.60934 -0.819778 -0.0198488
                  CHANNELS 3 Zrotation Xrotation Yrotation
                  End Site
                  {
                    OFFSET 2.33842 -0.294052 0.168128
                  }
                }
              }
              JOINT lPinky1
              {
                OFFSET 8.27202 -0.0477905 -0.4584
                CHANNELS 3 Zrotation Xrotation Yrotation
                JOINT lPinky2
                {
                  OFFSET 1.82734 -0.647385 -0.700984
                  CHANNELS 3 Zrotation Xrotation Yrotation
                  End Site
                  {
                    OFFSET 1.69225 -0.51767 -0.607171
                  }
                }
              }
            }
          }
        }
      }
    }
  }
  JOINT rButtock
  {
    OFFSET -8.77824 4.35084 1.2192
    CHANNELS 3 Zrotation Xrotation Yrotation
    JOINT rThigh
    {
      OFFSET 0 -1.70687 -2.19456
      CHANNELS 3 Zrotation Xrotation Yrotation
      JOINT rShin
      {
        OFFSET 0 -36.8199 0.73152
        CHANNELS 3 Zrotation Xrotation Yrotation
        JOINT rFoot
        {
          OFFSET 0.73152 -45.1104 -5.12064
          CHANNELS 3 Zrotation Xrotation Yrotation
          End Site
          {
            OFFSET -1.1221 -3.69964 12.103
          }
        }
      }
    }
  }
  JOINT lButtock
  {
    OFFSET 8.77824 4.35084 1.2192
    CHANNELS 3 Zrotation Xrotation Yrotation
    JOINT lThigh
    {
      OFFSET 0 -1.70687 -2.19456
      CHANNELS 3 Zrotation Xrotation Yrotation
      JOINT lShin
      {
        OFFSET 0 -36.8199 0.73152
        CHANNELS 3 Zrotation Xrotation Yrotation
        JOINT lFoot
        {
          OFFSET -0.73152 -45.1104 -5.12064
          CHANNELS 3 Zrotation Xrotation Yrotation
          End Site
          {
            OFFSET 1.1221 -3.69964 12.103
          }
        }
      }
    }
  }
}
MOTION
Frames:	4
Frame Time:	0.00833333
-0.042114 83.2741 48.3445 6.3774 0.6322 2.3694 -10.7568 7.49676 -2.13 6.69734 -12.3216 -0.096121 -3.13609 5.16478 -4.70781 3.46472 -4.3371 -8.54898 -0.0 0.0 0.0 -0.0 0.0 0.0 -7.9295e-14 -3.41269e-14 3.30406e-14 88.0904 24.7398 -16.6334 -10.8764 -4.69121 19.4558 -0.143187 10.7245 1.52526 7.67549e-10 -4.26963e-10 7.86185e-10 1.33312e-09 -7.39067e-10 1.3506e-09 7.67552e-10 -4.26955e-10 7.86177e-10 7.73091 5.47488 0.417314 7.67554e-10 -4.26957e-10 7.86195e-10 2.90554 0.965183 0.102902 7.67552e-10 -4.26955e-10 7.8619e-10 10.2786 0.731801 0.0259123 7.67548e-10 -4.26955e-10 7.862e-10 2.22167 -0.733487 -0.20892 -7.93101e-14 -3.41246e-14 3.27731e-14 -79.7425 32.1497 -2.99172 15.0967 -7.87476 -27.7868 0.0415252 -5.80428 0.818571 1.03818e-09 1.22006e-09 3.86566e-10 1.79237e-09 2.10685e-09 6.72232e-10 1.03817e-09 1.22005e-09 3.86573e-10 -7.73091 5.47488 -0.417314 1.03818e-09 1.22005e-09 3.86559e-10 -2.90554 0.965183 -0.102902 1.03817e-09 1.22005e-09 3.86561e-10 -10.2786 0.731801 -0.0259123 1.03819e-09 1.22006e-09 3.86551e-10 -2.22167 -0.733487 0.20892 -2.03217e-16 0.0 -3.88251e-19 0.578442 -34.2929 31.5284 -0.106385 23.9601 0.589256 -6.92063 -14.0025 -20.093 2.03217e-16 0.0 3.88251e-19 -12.833 11.436 -13.7413 -0.0433586 3.74266 -0.379584 2.34524 -9.63417 10.4395
-0.100378 83.2126 49.2014 6.3837 1.0095 2.3217 -10.7797 7.51092 -2.21621 6.64012 -12.3699 -0.125675 -3.10683 5.24413 -4.76728 3.47712 -4.36003 -8.67274 -0.0 0.0 0.0 -0.0 0.0 0.0 -4.73755e-14 2.9294e-14 4.54813e-14 88.1404 24.7655 -16.6462 -10.867 -4.68514 19.438 -0.141171 10.6498 1.51439 1.27553e-09 -3.98746e-10 3.31332e-10 2.2076e-09 -6.88644e-10 5.59532e-10 1.27554e-09 -3.98742e-10 3.31324e-10 7.73091 5.47488 0.417314 1.27553e-09 -3.98744e-10 3.31341e-10 2.90554 0.965183 0.102902 1.27553e-09 -3.98742e-10 3.31335e-10 10.2786 0.731801 0.0259123 1.27553e-09 -3.98743e-10 3.31344e-10 2.22167 -0.733487 -0.20892 -4.7479e-14 2.92971e-14 4.518e-14 -79.6948 32.2264 -3.181 14.9782 -7.77219 -27.5423 0.042992 -5.90183 0.832432 1.05867e-09 1.70327e-09 7.25599e-10 1.82857e-09 2.94288e-09 1.25858e-09 1.05866e-09 1.70327e-09 7.25611e-10 -7.73091 5.47488 -0.417314 1.05867e-09 1.70327e-09 7.25595e-10 -2.90554 0.965183 -0.102902 1.05866e-09 1.70327e-09 7.25597e-10 -10.2786 0.731801 -0.0259123 1.05868e-09 1.70327e-09 7.25587e-10 -2.22167 -0.733487 0.20892 -2.03217e-16 0.0 -3.88251e-19 0.365242 -34.211 31.6659 -0.102769 23.6417 0.591363 -7.16896 -14.5521 -20.2365 2.03217e-16 0.0 3.88251e-19 -12.8271 11.9797 -13.7068 -0.0440103 3.72597 -0.378618 2.34835 -9.65944 10.3979
-0.0707691 83.1241 49.9989 6.5898 1.284 2.3945 -10.7904 7.54068 -2.30363 6.58921 -12.4147 -0.155373 -3.0744 5.3262 -4.82736 3.47524 -4.40826 -8.79825 -0.0 0.0 0.0 -0.0 0.0 0.0 -7.32715e-15 8.84039e-14 5.3482e-14 88.1708 24.7838 -16.6479 -10.8601 -4.68068 19.4247 -0.139181 10.5755 1.50358 1.61515e-09 -3.11161e-10 -1.8441e-10 2.79053e-09 -5.35639e-10 -3.35074e-10 1.61516e-09 -3.1116e-10 -1.84417e-10 7.73091 5.47488 0.417314 1.61515e-09 -3.11162e-10 -1.84403e-10 2.90554 0.965183 0.102902 1.61516e-09 -3.11161e-10 -1.84408e-10 10.2786 0.731801 0.0259123 1.61515e-09 -3.11161e-10 -1.84402e-10 2.22167 -0.733487 -0.20892 -7.52242e-15 8.84074e-14 5.31485e-14 -79.6603 32.2862 -3.35807 14.8392 -7.65238 -27.2576 0.0440503 -5.97215 0.842425 9.41492e-10 1.95985e-09 9.80329e-10 1.62699e-09 3.38726e-09 1.69874e-09 9.41484e-10 1.95985e-09 9.80348e-10 -7.73091 5.47488 -0.417314 9.41493e-10 1.95985e-09 9.8033e-10 -2.90554 0.965183 -0.102902 9.41483e-10 1.95985e-09 9.80331e-10 -10.2786 0.731801 -0.0259123 9.41501e-10 1.95985e-09 9.8032e-10 -2.22167 -0.733487 0.20892 -2.03217e-16 0.0 -3.88251e-19 0.130472 -34.1421 31.4714 -0.100815 23.4857 0.593837 -7.3048 -15.0037 -20.1654 2.03217e-16 0.0 3.88251e-19 -12.8169 12.4618 -13.6683 -0.0446196 3.87727 -0.380585 2.35609 -9.7212 10.3365
-0.100646 83.0049 50.8144 6.6946 1.4457 2.4846 -10.7939 7.55352 -2.38404 6.57192 -12.4298 -0.180916 -3.05949 5.39696 -4.86964 3.46003 -4.47071 -8.88527 -0.0 0.0 0.0 -0.0 0.0 0.0 3.17324e-14 1.17281e-13 4.84538e-14 88.1464 24.7617 -16.6157 -10.8438 -4.67023 19.3937 -0.138821 10.5626 1.5017 1.55983e-09 -1.46162e-10 -6.67885e-10 2.69093e-09 -2.49251e-10 -1.17008e-09 1.55984e-09 -1.46163e-10 -6.67891e-10 7.73091 5.47488 0.417314 1.55983e-09 -1.46165e-10 -6.67878e-10 2.90554 0.965183 0.102902 1.55984e-09 -1.46166e-10 -6.67883e-10 10.2786 0.731801 0.0259123 1.55983e-09 -1.46165e-10 -6.67878e-10 2.22167 -0.733487 -0.20892 3.14832e-14 1.17283e-13 4.81059e-14 -79.6965 32.2774 -3.44602 14.7127 -7.54422 -26.9995 0.0433747 -5.93348 0.836919 6.28748e-10 1.77381e-09 9.98942e-10 1.08738e-09 3.06667e-09 1.73e-09 6.28743e-10 1.77381e-09 9.98964e-10 -7.73091 5.47488 -0.417314 6.2875e-10 1.77381e-09 9.98945e-10 -2.90554 0.965183 -0.102902 6.2874e-10 1.77381e-09 9.98946e-10 -10.2786 0.731801 -0.0259123 6.28758e-10 1.77381e-09 9.98936e-10 -2.22167 -0.733487 0.20892 -2.03217e-16 0.0 -3.88251e-19 -0.0536506 -34.0545 31.1139 -0.10015 23.4614 0.596323 -7.30639 -15.3496 -19.823 2.03217e-16 0.0 3.88251e-19 -12.7479 13.0004 -13.594 -0.0453947 3.96444 -0.383056 2.33405 -9.75115 10.1717
